<?xml version="1.0" encoding="UTF-8"?>
<svg id="Layer_2" data-name="Layer 2" xmlns="http://www.w3.org/2000/svg" viewBox="0 0 343.4 241.22">
  <defs>
    <style>
      .cls-1 {
        fill: #d2a539;
      }

      .cls-1, .cls-2 {
        stroke-width: 0px;
      }

      .cls-2 {
        fill: #fff;
      }
    </style>
  </defs>
  <g id="Layer_1-2" data-name="Layer 1">
    <path class="cls-2" d="m4.44,158.01c-3.66,0-3.66-1.51-3.23-3.02l.86-4.53c.43-3.88,1.08-7.76,1.94-10.56-.22-1.29.43-2.16.65-3.66.65-4.1,1.29-7.76,1.51-12.72,0-.65.22-1.29.43-1.94.22-1.72.22-3.88.65-5.82,0-.86.86-3.45,1.08-4.74.21-.86.65-2.59.65-3.66.43-2.59,1.29-7.11,2.16-9.27.22-1.08.65-3.88,1.08-5.82l.22-1.72c.21-2.37.65-6.25,1.29-8.41,0-.22,0-.65.22-.86v-2.16c.21-.22.21-.65.21-.86.43-1.51.65-3.23.86-4.96.22-1.29.22-3.23.43-4.96,0-.22.22-1.51.43-2.16.22-1.29.43-2.59.65-4.31,0-2.59.65-6.9,1.08-9.48.22-1.29.86-2.59,1.29-4.31.21-1.51.65-4.31.86-6.68,0-.65.43-1.94.65-2.8l1.29-11.21c0-1.08,1.29-4.74,1.72-7.11.43-1.29.22-2.59.43-4.1v-.65l.43-1.51v-.65c.22-2.37.22-4.53.86-6.68-.22-1.08-.22-1.94,0-3.02.65-3.23,1.72-3.66,3.88-3.66,7.54,0,15.3,0,22.85.22,3.23,0,3.23.43,3.66,3.45.22,1.29.43,3.23,1.29,5.6.43,1.72.22,3.45.43,5.39.43,2.8.65,7.54.86,10.99,0,.86.86,2.37,1.08,3.66l.86,6.47c.22,1.51,0,4.31.86,7.33v2.37c0,.43.22.86.22,1.29l.65,3.02c0,.43.22.86.22,1.29.65,3.02,1.08,10.78,1.72,15.95.22,1.29,1.08,3.23,1.29,4.96.65,6.47,1.08,13.58,1.94,20.48,0,1.08.65,2.59.86,4.1.43,2.16.65,6.68.65,7.33,0,3.88,1.29,6.9,1.29,10.99,0,1.08.22,3.02.22,4.31,0,1.72-.22,2.37.43,4.31l.65,2.8c.65,2.59,1.08,5.82,1.08,8.41.22,2.16.65,7.33,1.29,9.27.43,3.02.43,6.68,1.08,9.92.43,2.37,0,4.1-3.23,4.1-1.72,0-15.52.43-18.54-.65-1.08-.43-1.29-1.29-1.51-2.59-.22-.86-.65-1.72-.65-2.59,0-2.16.21-5.17.21-6.68-.21-.22-.21-.65-.43-1.08l-1.08-7.33c-.22-.43-.22-1.29-.22-1.94v-.43l-.43-.86v-.43l-.86-6.9c-.22-.43-.22-.65-.65-.86h-13.37l-1.51-.22c-1.08,0-1.94,0-2.8.86-.43,3.88-.65,9.48-1.72,13.15-.65,2.8-.86,5.6-1.08,8.41-.22,2.37-1.08,4.74-1.51,7.33-.22.43.22,2.8-2.59,2.8H4.44Zm27.81-125.03l-.86,1.08c.65,1.29.65,2.59,1.94,2.8.22-.65,1.08-1.08,1.08-1.94,0-.65-.65-1.29-1.08-1.94h-1.08Zm1.51,12.72l-1.51-.86c0,.22-.65.65-.65,1.29s.65,1.51.65,1.72q.22-.22.43-.22l.65-.65c.22,0,.43-.22.43-.22v-1.08Zm-.86-25.22h1.08c.22-.22.86-.86,1.29-.86v-1.08h-1.72c-.65.43-1.29,1.08-1.29,1.29l.65.65Zm12.5,78.9c0-.65-.86-3.88-1.29-6.04-.22-2.16.21-5.39,0-6.68-.43-1.72-1.29-4.53-1.29-5.17l-1.94-27.16c-1.94,5.82-3.02,13.58-3.67,21.56-.22,1.72-1.08,3.66-1.29,4.96-.22,1.08.21,2.59,0,3.45,0,.22-.22.65-.22,1.08l-.86,2.37c0,.43-.22.65-.22,1.08-.21,2.16,0,4.74-.21,7.11-.43.86-.65,2.8-.65,3.45,0,.86,0,1.51.43,1.94,5.82-.86,7.98,0,11.21,0v-1.94Zm-10.99-71.13h.43l.65.22c.43-.65.86-1.72.86-2.16s-.43-1.08-.65-1.51c-.43.43-1.29.86-1.29,1.29v2.16Zm2.37-24.14c-.43.65-1.08,1.51-1.51,1.29.65.43,1.08,1.08,1.51,1.08v-2.37Zm5.39,32.33l-1.51-.22-.65.65c.43.86.86,1.29,1.51,1.29.86,0,.65-.22.65-.22v-1.51Zm.65,86.22l.65-.22.22.43-.65.22-.22-.43Zm.43-59.28c0,.43,1.08,1.08,1.72,0h-1.72Zm.21,42.25h.86v.43h-.86v-.43Zm1.72-64.24v-.43l.65-.43.22.43-.86.43Zm.22,11.64h2.59c0-.22,0-.86-.43-1.08-.65.65-1.72.65-2.16,1.08Zm3.23-24.36c-.22,0-.65-.22-1.08-.43-.86.65-1.51,1.94-1.51,2.59.22,0,.43.43,1.72.43.22-.65.86-.86.86-1.72v-.86Zm-2.37,40.09h1.51v-.65h-1.51v.65Zm2.16,39.66c-.21,0-1.08.43-1.29.65.43.22,1.08.43,1.08.43.21-.43.21-.86.21-1.08Zm0-44.62l-.65.65c.86.43,2.59.86,3.23.86.86,0,1.08-.22,1.29-.65-.86-.22-2.16-.86-3.02-.86h-.86Zm-.43,15.52h1.08c0-.86-.43-.86-1.08-1.08v1.08Zm.22,6.04v.43h1.51v-.43h-1.51Zm.43,37.94h1.08v.43h-1.08v-.43Zm1.94-80.84l1.08-.86c-.86-.22-1.72,0-2.37,0,0,.22.65.86,1.29.86Zm-.22,62.51h-.43v-.65h.43v.65Zm.65-4.31v-1.08h-.65v1.08h.65Zm0,21.56v-1.08h-.65v1.08h.65Zm0-74.58h.43v-1.51h-.43v1.51Zm1.29,22.2c0,.22-.86.65-1.08,0h1.08Zm-1.08,3.66h1.08v.43h-1.08v-.43Zm.22,22.42s.21,0,.43-.43c.22.43-.22.43-.43.43Zm.65-2.37l-.43-.22.22-.86h.43l-.21,1.08Zm.65-2.59c.86-.43,1.51,0,2.37,0,.65,0,1.29-.86,1.29-1.08-2.37,0-3.45-.43-4.1,0l.43,1.08Zm-.22,31.04c.43.22.65.43.65.86h1.72c0-.43.22-.86.22-.86h-2.59Zm1.51-41.17c-.65.43-.65,1.08-.21,1.72h1.72c0-.43.22-.86.22-.86-.22-1.08-.65-2.16-2.16-2.37-.43.22-.65,1.08-.65,1.51.21,0,.86-.22,1.08,0Zm.22,15.52c0-.22.43-.65.43-1.08-.43-.22-.86-.22-1.08-.22-.43.22-.43.65-.65.86l1.29.43Zm-1.29,36.65v1.08h1.29v-1.08h-1.29Zm2.16-20.91c.65-.65,1.29-1.29,1.29-1.94s-1.08-1.29-1.08-1.51c0,.22-.22.43-.43.65l-1.08,1.51c-.22.22-.22.43-.43.65.65.22,1.51.65,1.72.65Zm-1.51-54.97l.43-.22.43.43-.43.22-.43-.43Zm.86,29.53v1.08l.86.86c.21-.22.65-.43.65-.43,0-.86-.22-1.29-.22-1.51h-1.29Zm.65,17.24v-1.08h-.65v1.08h.65Zm-.65,33.41l.22,1.72,1.72-.43-1.94-1.29Zm.86-71.57v1.08h1.08c0-.22.22-.65.22-.65l-1.29-.43Zm2.16,20.48v-1.29c-.22,0-.65-.43-1.08-.43-.43.22-.86,1.08-.86,1.51h.43l1.08.22h.43Zm-.65,31.04h-1.08c0,.65.43,1.51,1.08,1.72v-1.72Zm.65-18.54c0,.22.22.22.22.43.43.86.65,2.37.65,3.02h1.72c-.22-.65-.65-2.16-.65-3.02-.86-.86-1.94-1.51-3.02-1.29,0,.22.22.22.22.43l.86.43Zm-1.08,37.29h1.08c0-.86-.43-.86-1.08-1.08v1.08Zm1.51-44.84c.65-.86.65-1.94.65-2.59-.22,0-.65-.22-1.08-.22l.43,2.8Zm.65-10.35l.43-.86c-.21-.22-.86-.22-1.08-.22,0,.22.43.65.65,1.08Zm-.43-30.83v.43h1.29v-.43h-1.29Zm0,66.61h.86v.43h-.86v-.43Zm.86-62.08c.65,0,1.08-.22,1.08-.22,0-.65-.65-1.08-1.08-1.08-.21.65,0,1.08,0,1.29Zm0,13.58l1.08.43v.43l-1.08-.43v-.43Zm3.23-7.76v-1.29c-.21-.43-.65-.86-.86-1.08-.65.22-1.51,1.08-1.51,1.72s.43.65.43.65h1.94Zm.86,31.47c.86,0,1.08-.22,1.72-.43-.65-1.29-1.72-.65-3.02-2.59,1.29-.65,1.51-1.72,2.59-2.59-.22-.43-.22-.86-.65-1.08h-1.72c-.86.86-2.16,1.72-2.16,2.37s1.08,3.02,1.72,4.1c.43.22.65.22,1.51.22Zm-1.72-16.17c-.21,0-.86,0-1.08-.43v1.51c.21,0,.65-.22,1.08,0v-1.08Zm-.86,4.74c.22,0,1.08-.43,1.08-.65-.22-.43-.65-.43-.65-.43-.43,0-.43.86-.43,1.08Zm0,2.59c.86.65,1.94.22,2.8-.22-.65-1.08-2.16-1.08-2.8-.86v1.08Zm.65,15.95c.21-.22.65-.22.65-.22,0-.43-.43-.86-.65-1.08,0,.22-.65.43-.65.43l.65.86Zm.65-21.34c0,.22-.22.86-.86.86l.86-.86Zm2.8,43.54c.65,0,1.51-.43,2.16-.65-.22-.43-.86-.43-1.29-1.08-.21-.65-.21-1.51-.21-2.16-.22,1.08-1.29,1.08-2.37,1.51,0,.43.65,2.37,1.72,2.37Zm4.53,15.95c-2.16,0,1.29-3.02-1.94-3.02-.65,0-.86.43-1.29.43.65.22,1.29.65,1.29,1.29l-.65.65c1.29,1.94.86,3.23,2.59,3.23.65,0,.86-1.72,1.08-2.59h-1.08Zm-2.59-34.92l1.08.22v.43l-1.08-.22v-.43Zm2.8,31.26l.65-.86c-.86-.43-1.94-.43-2.8,0,.22.22.43.65.43.86h1.72Zm-1.08-3.66c-.65,0-.22,1.08.22,1.72,0-.86-.22-1.51-.22-1.72Z"/>
    <path class="cls-2" d="m117.83,158.22c-1.29-.22-2.16-.22-2.37-.22-.65,0-2.8-.43-3.88-.86-.43-.86-1.29-1.08-1.94-1.94l-2.59-.65c-.86-.22-1.94-1.72-3.45-2.37-5.82-2.59-10.99-10.13-11.42-14.87-.22-.65-1.51-1.94-1.72-3.02-.22-1.29.43-3.23-.22-5.17,0-.22-.86-.86-.86-1.51-.21-.43-.43-1.51-.43-2.37,0-8.19.43-10.78,0-15.52-.22-2.37-.22-11.86,0-18.54.22-3.02-.43-9.7-.43-10.35v-7.76c0-.86-.43-4.1-.21-6.04.21-.43.65-1.72.65-2.37s-1.08-6.9-1.51-10.56c0-1.08.86-3.45.43-5.17-.22-1.08-.86-2.8-.65-4.31.22-3.23-.22-9.27-.22-10.13v-7.11l-.43-22.63c0-2.37.86-3.88,3.45-3.88,1.51,0,4.96,0,6.47.22,1.08.22,4.53,0,5.39,0l9.92-.43c3.02,0,4.1,2.8,4.1,4.31,0,.86,0,1.08-.22,1.72,0,1.94.22,6.68-.22,8.84-.43,2.37-.43,6.68-.43,7.33,0,.86,0,3.45.21,5.39,0,1.08-.21,2.8-.43,4.31s-.65,3.23-.22,4.74c.65,3.02.86,6.25.65,8.84-.43,3.45.22,9.7.22,10.35v31.69c0,.65.22,3.45.22,4.31s0,2.37-.43,3.88l.43,1.72c0,1.51.65,3.45.22,5.17,0,.43,0,.65-.22,23.28,0,7.33,2.59,11.86,9.7,11.86,2.8,0,7.11-1.94,8.19-5.6.65-2.37.65-5.17.86-7.54l-.86-85.15c0-.65-.86-1.72-.86-2.8,0-2.37.22-4.74-.22-6.47-.22-.65,0-10.56,0-11.42V5.39l-.22-1.72v-.86c0-2.37,3.02-2.16,4.1-2.16l8.84.43c.86,0,9.27-.86,9.92-.86s3.45,1.29,4.74,1.94c.65.65,0,3.23-.21,4.1l.65,91.61c0,6.9.65,12.72.86,19.19,0,2.16-.86,6.25-.86,7.11v.65l.22,1.72c0,1.29-.22,2.37-.43,3.66-.22,2.37-.43,5.39-1.08,8.19-.43,2.16-2.37,4.53-3.23,6.68-.21.22-1.08.65-1.51,1.29-.21.43-.21,1.51-.65,2.16-2.16,1.94-4.96,4.1-7.54,6.25-.86.65-2.59,1.08-3.66,1.72-1.29.65-1.08,1.51-3.45,1.51-.86,0-9.7,1.29-10.35,1.29-.22,0-1.08,0-2.37-.22l-8.41-.86Zm-24.57-48.29v.65l1.08-.65-.43-.43-.65.43Zm.22-34.49l.65,1.08.86-.43-.65-1.08-.86.43Zm3.45-7.54l-.86-1.29c-.65-.22-1.08.22-1.51.43,0,.65,0,1.72.65,2.37.86-.22,1.51-1.08,1.72-1.51Zm-.86,20.91l-1.08-.65c.65.86.65,1.51.65,1.72h1.08l-.65-1.08Zm1.94,25.87l1.08-.65v-1.08l.22-.65c-.86.43-1.08.43-1.51.65-.43,0-.86.22-1.72.43.22.43.22.86.22,1.08.21.22.43.22.43.22h1.29Zm2.16-49.58c.22-.22.22-.43,0-.86l-1.29-1.94q-.43.22-.65.22h-.43l-.65,1.29c-.22.43-.43.86-.43,1.29.86,1.29,1.94,3.02,3.23,4.31q.22-.65.22-.86l.22-.65c.21-.22.43-.65.43-1.08-.22-.43-.65-1.08-.86-1.29l.22-.43Zm-1.94,21.99h.22c.22.22.43.22.86,0,.22-.43.22-.86.22-1.51l1.51-1.08q0-.22-.22-.43v-.22c0-.22,0-.43-.22-.65l-1.94.65c0,.43,0,.65.22.86l-.43.22c-.22,0-.43,0-.86.22-.22.22-.22.43-.22.65l.43.65s.22,0,0,.43h.43v.22Zm.22,13.15l.43.86,1.08-.65-.65-.86-.86.65Zm3.02,5.17l-1.51-1.29c-.43.65-.86,1.51-1.08,2.59.65.22,1.94-.86,2.59-1.29Zm-.65-4.53l1.08,1.72,1.29-1.29c-.21-.43-.43-.43-.65-.65l-.43-.43-1.29.65Zm1.08,6.9l.65-.43.22.43-.65.43-.22-.43Zm.86-33.84l-.22,1.72q.22.22.43.22h.21c.22,0,.43,0,.65-.22.65-.43.86-1.72.65-2.16l-1.72.43Zm1.94,42.68c.86-.65,1.94-2.16,1.51-3.66-1.72.65-2.37,1.94-2.37,2.8l.86.86Zm2.37-8.62c-.21,0-.21.22-.21.22h-.86c-.22.65-.22.86.22,1.51.43.65,1.51,1.51,2.8.65.43-.22.65-.43.86-.86v-.43l-1.29-1.72c-.22.22-.65.22-1.29,0,0,.22-.22.43-.22.43v.22Zm-1.08-1.29c.22.22.65.22,1.08.22,0-.22-.21-.86-.65-.86-.21.43-.43.65-.43.65Zm2.8-4.74c-.43-.43-1.51-.22-1.72,0,.43.65,1.08,1.08,1.29,1.08,0-.22.43-.65.43-1.08Zm-.86,10.35v-1.29l-.86.22v1.29l.86-.22Zm6.04,8.84v-.86c-.65,0-1.29-.43-1.72-.43-.65,0-1.29.65-1.94.86.22.65,1.51.65,2.16.65l1.08-.22h.43Zm-2.59-10.13c.43.65.65,1.08.86,1.29.22.22.43.22.43.43.86,0,1.72-.43,1.94-1.08-.65-.86-1.29-1.51-1.94-1.51l-1.29.86Zm1.08,39.23l2.59-.22c-.22-1.08-1.29-1.94-1.94-2.16-1.08.86-.65,2.16-.65,2.37Zm3.88-7.98c.86,1.94,2.37,1.72,3.23,1.72,1.51,0,1.94-.22,2.37-2.37-.22,0-.43-.43-4.96-.43-.21.22-.65.86-.65,1.08Zm12.5.22l.43-.86-.65-.22-.22.86.43.22Zm0,9.05l.43-5.17h-.65l-.22,5.17h.43Zm6.04-13.36l-.22,1.08h1.94c.22-.22.22-.86,0-1.08h-1.72Zm4.1-64.45v-.65c0-.43-.86-.86-1.08-.86-.65.22-.86.43-.86,1.08,0,.86.21.86.86,1.29.65-.43.86-.65,1.08-.86Zm4.96,10.99c-1.94-.65-3.88-.65-5.39-1.29v1.51c.21,0,.65-.65.86-1.08.65,1.08,1.29,2.8,2.8,2.8.65,0,1.51-.65,1.72-1.08v-.86Zm-4.1-24.79c-.22.65-.22,1.72,0,1.94.43-.43.86-.43,1.08-.65,0-.65-.86-1.29-1.08-1.29Zm0-3.45l.65.65c.86-.22,1.94-.86,2.59-1.51l-.22-1.72c-.86.43-1.94,1.08-3.02,1.72v.86Zm.22-5.39c.86,0,1.94.43,2.8.65,0-.22.43-.65.43-1.08-.65-.65-1.08-.86-1.72-.86-.86,0-1.29.22-1.51.65v.65Zm0,19.18c.65.22,1.29.65,1.94.65s3.02-1.29,4.31-1.72c-1.94-1.08-3.45-2.59-4.53-3.45-.43.22-.86.43-1.08.65-.22,1.08-.65,1.94-.65,2.59v1.29Zm0,9.05c1.29-.22,2.8-.65,3.66-1.08-.21,0-.65-.43-1.29-.43-.86,0-1.72,1.29-2.37,1.51Zm5.82-6.68c0-.86-.43-.86-.65-1.08-.65,0-2.8-.22-3.23,1.51.22.43.86,1.08,1.51,1.08s2.37-.43,2.37-1.51Zm.43-7.54c.22-.22.65-1.08.65-1.29-1.72-1.08-.65-3.02-1.72-4.31,0,.22-.86.43-1.29.65.43.65-.22,1.29-.22,1.94,0,.22,1.08,2.59,2.59,3.02Zm-.65-13.8l.65.22c.22,0,.65-.43.65-.43-.21-.43-1.29-.43-1.51,0,0,0,.22,0,.22.22Zm.22,32.98c.43-.43.65-.86.65-1.08-.22-.43-.86-.65-1.08-.65l.43,1.72Zm1.29-7.33l1.51-.43c-.43-.43-1.29-1.08-1.51-1.08v1.51Zm1.51-6.68c.22,0,.43-.65.86-1.08-.43-.22-1.08-.22-1.29-.22,0,0,0,1.08.43,1.29Zm-.43,56.05l.65-.43.22.43-.86.43v-.43Zm1.29-71.57v-1.29h-.65v1.29h.65Zm.22,8.19c.86.22.22-1.29.22-1.51-.43.65-.22,1.51-.22,1.51Zm1.51-6.04c0-.86,0-1.72-.22-2.37-.21.86-1.29,1.72-1.29,2.37h1.51Zm0,48.93c.65,0,.86-.65,1.29-1.08-.65-.22-1.29,0-1.94,0,.43.43.65.86.65,1.08Zm-.43-31.04c-.22.65.21,1.51.65,1.94h1.08c0-1.08-.43-1.51-.43-1.94h-1.29Zm1.51,55.4v-1.08h-.65v1.08h.65Zm.86-43.11c.21-.43.65-1.08,1.08-1.51-.43-.43-1.29-1.08-1.51-.86,0,.43-.43.22-.43,1.08,0,.65.43.86.86,1.29Zm2.37-9.7c-.22-.22-.65-.43-.65-.43-1.08.43-2.16,2.8-2.16,3.02,0,.86.65.65,1.08.65.86-1.29-.22-2.16,1.72-3.23Zm-.86,4.74c.43.22.86.22,1.08.65.43-.43.43-.86.43-.86-.22-.43-1.08-.86-1.51-.86v1.08Zm.21,14.44l-.21,1.08h1.94c.22-.22.22-.86,0-1.08h-1.72Z"/>
    <path class="cls-1" d="m234.83,5.04c.21,1.7,3.18,2.12,4.46,3.61,1.91,2.76,1.7,5.09,2.76,5.09.64,0,.21,0,.64-.21,1.06,2.12,4.67,13.16,4.46,14.43v15.28c-2.33,0-5.31.85-5.94.85h-8.49c-.64,0,.21.64-.64.64h-6.79c-1.49-3.18,0-4.03,0-5.3v-.42l-.64-.64v-.42c-.42-1.49-.21-4.03-.64-5.73-.42-2.33-.42-4.88-1.7-6.79-1.06-1.7-4.67-4.67-7.21-4.67-.64,0-1.91.42-2.76,1.27-5.09,4.24-5.09,8.06-5.09,12.31,0,8.91,8.7,23.55,12.09,26.31,8.06,11.67,20.37,28.22,27.16,42.44.64,3.39,2.97,10.61,2.55,12.31-.21,2.55.85,3.61.85,4.24,0,.85-.42.21-.64.42.64,7.85-2.12,19.31-7.85,27.37-.42.64-1.7.85-2.33,1.27-3.4,6.79-15.7,10.4-22.7,10.4-.64,0-4.46-1.06-6.79-1.06-9.12,0-20.16-8.27-22.28-17.4-.21-.21-.85-.85-1.27-1.06,0-.85,0-2.12-.21-2.76-.21-.64-.85-.85-1.27-1.49,0-4.24-.85-5.73-1.06-8.7-.21-2.76.64-3.18.42-5.09-.21-2.55-.85-7.21-.85-7.85s1.06-2.33,1.49-2.97c.85-.21,1.7,0,2.55,0h5.52c.85,0,2.12-.85,3.4-.85,2.55-.21,5.3.21,9.34-.21l.64.42c0,1.06-.64,3.4-.64,3.82,0,.64,1.06,3.82,1.27,6.58.21,1.49.21,4.67.64,7,0,.85.42,2.12.85,2.76.42.85,1.27,2.33,1.91,3.82,2.55,1.91,2.97,1.7,5.09,1.7,9.12,0,10.82-9.12,10.82-14.22,0-.64-.42-.85-.64-1.06-.42-2.33-1.49-7.64-2.76-10.4,0-.21-.42-1.49-1.06-2.55-.21-3.82-4.24-8.49-7.21-12.73,0-.64,0-1.7-.64-2.33-2.76-2.33-6.15-8.49-8.28-9.97-.64-1.7-2.97-5.94-5.3-7.85,1.06-1.7-2.12-3.18-3.4-5.09-1.27-1.7-2.55-4.88-4.88-7-.64-2.12-3.18-6.15-4.03-8.27-.42-1.06-.85-4.24-1.27-5.52-.42-.64-1.49-1.91-1.7-3.18,0-.85.42-2.12.21-2.76-.21-.42-1.06-1.49-1.27-2.33.21-.21.21-.64,0-7.21,2.55-3.39-.64-7.64,2.33-11.46l2.55-6.37c.42-.85,2.55-1.7,2.12-3.18,1.7-1.06,4.24-2.76,5.09-4.67,1.06-.42,2.12-.64,3.4-.85.21-.64.21-1.49.85-2.12,4.67-.64,4.67-2.76,7.85-2.76.64,0,1.91.21,2.76.21.64,0,1.49-1.7,3.61-1.7.64,0,3.82.64,5.73.64s3.82.64,4.88.64h.42l1.06-.64h.42c.64,0,1.06,1.06,1.49,1.27,1.06.64,2.55,1.06,4.03,1.7.42-.21.42-.85.85-1.27.42.21,1.06.64,1.7.85v.64c0,.21-.21.42-.42.64.21,0,.21.21.42.21Zm-41.37,127.1v.85h1.27v-.85h-1.27Zm4.24,9.76l.64-1.27-.85-.21-.64,1.06.85.42Zm5.09,8.06v.85h1.49v-.85h-1.49Zm14-74.26v1.06h1.91v-1.06h-1.91Zm4.88,11.88v2.12h.42l.42.21c.21,0,.42,0,.64-.42,0-.42-.21-.64-.42-.85l-1.06-1.06Zm1.27,58.14v-1.49h-.85v1.49h.85Zm2.76-3.82c0-.42,0-1.27-.64-1.91-.21.21-.21.42-.21.42l-.21.21c-.21.21-.21.42-.64.64.64.64,1.27.64,1.7.64Zm-1.06-67.05c-.42,1.49,0,2.55.21,3.4h1.49c0-.64,0-.85-.21-1.27,0-.64.21-1.49-.21-2.12h-1.27Zm2.97,75.32h-1.7c-.21,0-.42.21-.42.64,0,.21.21.64.42.85l1.7-1.49Zm-1.06-69.81c.42-.64.85-.85,1.49-1.27,0-.21.21-.21.64-.64-.85,0-1.27-.21-1.7-.21s-.85,0-1.27.21c0,.42.42,1.27.85,1.91Zm-.42,64.93c.42,0,.85.21.85.42.85,0,1.49-.85,1.49-1.49-.42-.21-1.27-.64-1.91-.64l-.42,1.7Zm4.88-119.46c-.64,0-1.06.64-1.06,1.06.21.21.64.21,1.06.21.21-.42,0-1.06,0-1.27Zm0,70.66v1.06l1.91.42v-1.06l-1.91-.42Zm1.06,40.74l.42-.64c-.21-.21-.21-.42-.21-.64-.21-.21-.21-.64-.64-.85-.42.64-.42,1.7-.42,2.33.42,0,.64-.21.85-.21Zm4.67-10.18h-2.12c-.42.42-1.27.85-1.7,1.06-.64.42-1.27,1.06-1.27,1.49v.85c.42.42,1.06.42,1.7.42h.85c.64-.42,2.55-1.91,2.55-2.55v-1.27Zm-4.46-3.18q0,.21.21.21v.21c0,.21.21.42.42.64.85.21,1.7.42,2.76.64h.21l.42.21c.42.21.64.42,1.06.42h.64l.42-.21h.42v-.64c.21-.21.21-.42.21-.85,0-.64-.85-1.7-1.7-2.55-.21.21-.42.42-.42.64l-.42.42c-.21.21-.42.42-.64.42s-.64-.21-1.27-.42c-.64-.21-1.27-.42-1.7-.42-.85,0-.64.42-.64.42v.85Zm.85-19.73l.64-1.27-.85-.21-.64,1.06.85.42Zm.64-11.03l.42-.21h.42c0-.64-.21-.85-.21-1.06l-.64-.64c-.85.42-1.27,1.27-1.27,1.91h1.27Zm1.27,20.16h1.49c0-.42.21-.64.21-.85v-.21c.21,0,.21-.21.21-.42-.42-.21-.64-.42-.64-.64-.21-.21-.64-.42-.85-.42h-.85l-.42,1.91c.21.21.42.21.42.21l.42.42Zm.42,17.4l-.85.85v1.06c.64.21,1.7.21,2.33,0v-1.27c0-.85-.42-.64-.64-.64h-.85Zm-.85,9.97c1.06.64,2.12,1.06,2.55,1.06,0-.42,0-.64-.21-.85v-.85l-2.33.64Zm.85-125.4c.21,0,.64-.85.85-1.06-.21,0-.64-.42-.64-.42-.21.42-.64,1.27-.21,1.49Zm3.18,99.72c-.64,0-1.49,0-1.91.21-.21,1.06.85,1.91,1.7,2.12l1.7-1.49-.21-1.49c-.42,0-.64,0-.85.21l-.42.42Zm1.7-12.52l-.42,1.49c.21.64.85,1.27,1.7,1.27s1.27-.85,1.27-1.49c0-.42,0-.85-.21-.85l-.21-.21s-.21,0-.42-.21h-1.7Zm2.12,30.55c.64-.21,1.06-.64,1.06-1.49,0-.42-1.06-1.7-1.7-2.12-.85.21-1.06,1.27-1.06,1.91s.42,1.49.85,2.33l.85-.64Zm0-6.15v-1.7h-1.06v1.7h1.06Zm1.27-2.12v-.64c.21-.42.42-.64.42-1.06h-1.49c0,.64-.21,1.06-.64,1.7h1.7Zm1.91-12.31c-.64-.42-.85-.42-1.27-.64l-.42-.21h-.21c-.42.85-.21,1.49-.21,2.33.42,0,1.91-1.27,2.12-1.49Zm5.94-3.39v-4.03c0,1.7.85,3.18,1.91,4.03h-1.91Z"/>
    <g>
      <path class="cls-1" d="m291.47,46.31l.31,2.48,1.39,2.95,1.08.31,2.01,4.34,3.26,2.17.93.93,11.16,2.48h4.18l5.12-1.71.62-1.4,4.65-1.24,4.65-6.05.93-.31,2.79-2.64h3.26l1.08.46,2.48.47.93,2.79-.62,2.48-2.48,5.74-3.41,2.17-2.32,2.48-5.12,3.41-2.95,1.09h-1.39l-2.63,1.24-6.36,1.4h-3.1l-6.82-1.24h-3.1l-2.48-.46-3.57-1.71-3.72-1.7-4.03-2.02-2.02-3.72-2.94-2.48-.62-2.01-2.02-3.88-1.39-.62-.46-5.27.31-3.1-1.55-8.06.77-3.41v-6.36l1.24-2.95.15-1.71,2.48-3.72,1.86-4.03,1.39-2.02.77-.15,2.17-3.57,3.72-2.02,6.67-3.1,3.1-.77,1.55-.93,4.34-.93,4.03.62,1.55.77,2.17-.77,3.26.93,1.39,1.09,4.03.77,2.95,1.4,2.01.62,2.17,1.55,6.36,6.2,2.17,3.57.93,3.57.93,2.02,1.08,4.65-.31,1.08.93,5.27-1.08,2.17-3.26,2.02h-2.79l-1.86.62-3.57-.46-2.32.46-4.65-.31-1.7.62-3.72-1.08-6.67.93-3.41-.62-2.79,1.24-4.34-.62-1.39.78-6.2-.78-2.01-.93-2.79-.62-.93,1.39,3.1,6.36.46,1.39Z"/>
      <path class="cls-1" d="m291.47,132.46l.31,2.48,1.39,2.95,1.08.31,2.01,4.34,3.26,2.17.93.93,11.16,2.48h4.18l5.12-1.71.62-1.4,4.65-1.24,4.65-6.05.93-.31,2.79-2.64h3.26l1.08.46,2.48.47.93,2.79-.62,2.48-2.48,5.74-3.41,2.17-2.32,2.48-5.12,3.41-2.95,1.09h-1.39l-2.63,1.24-6.36,1.4h-3.1l-6.82-1.24h-3.1l-2.48-.46-3.57-1.71-3.72-1.7-4.03-2.02-2.02-3.72-2.94-2.48-.62-2.01-2.02-3.88-1.39-.62-.46-5.27.31-3.1-1.55-8.06.77-3.41v-6.36l1.24-2.95.15-1.71,2.48-3.72,1.86-4.03,1.39-2.02.77-.15,2.17-3.57,3.72-2.02,6.67-3.1,3.1-.77,1.55-.93,4.34-.93,4.03.62,1.55.77,2.17-.77,3.26.93,1.39,1.09,4.03.77,2.95,1.4,2.01.62,2.17,1.55,6.36,6.2,2.17,3.57.93,3.57.93,2.02,1.08,4.65-.31,1.08.93,5.27-1.08,2.17-3.26,2.02h-2.79l-1.86.62-3.57-.46-2.32.46-4.65-.31-1.7.62-3.72-1.08-6.67.93-3.41-.62-2.79,1.24-4.34-.62-1.39.78-6.2-.78-2.01-.93-2.79-.62-.93,1.39,3.1,6.36.46,1.39Z"/>
    </g>
    <g>
      <path class="cls-1" d="m.43,208.86l-.21-2.2v-2.42l.07-1.17.25-.36v-1.24l-.53-1.35.28-1.6.18-.39-.28-1.07.32-1.78-.18-.82v-.78l-.18-.14-.07-.18.5-1.78-.18-1.17.18-1.07-.14-1.74v-1.49l-.18-1.39.11-.5v-1.46l-.07-.75.21-2.03v-2.74l-.18-1.42.14-.82-.25-.85.18-2.03v-2.2l.71-.21,1.74-.36,1.85.43.57-.14,1,.21,1.28-.11,1.03.07.75-.25,1.56.18.46.11h5.69l1.56-.18,1.71.11h2.42l-.11.25.39.39-.11,1,.25,1.24-.18,1.14.14.71-.18.71.25,1.88-.14.64v.82l-.21,1.53.36,1.35-.21.71.07.82.14.43-.18,2.03.25.78-.25,1.49.18,1.07.11,1.49-.28,1.71v4.3l.25.82-.14.89v2.38l-.21,1,.21.82v1.39l.28.07.11.18-.39,1.78v3.16l-.07.46-.78.71-.57.11-1,.07-1.46-.21-1.53.28-.28-.04-1.78.25-.92-.21-.21-.14-1.92.21h-1.24l-1.1-.11h-.96l-.71.07-2.2-.21-1.24.25-.82-.07h-1.28l-.96-.11-1,.14-.71-.64.07-.71Zm18.84-13.08v-.68l-.32-.68.04-.46-.75-1.35-1-.92-.39-.07-.71-.5-1.17-.28-.57-.32-1.74-.71-1.42-.46-.82-.14-1.81-.96-.28-.32-.5-.75-.25-.64.07-.14.14-1.03.5-.75.5-.6.43-.14.35-.25,1.53-.36.11.14,1.32.28.64-.07,1.21.36.85.96.39,1,.25.53.64.36.5.11h.57l.68-.18.14-.21.14-.53-.28-1.14-.46-1.14-.18-.39-.64-.82-.28-.14-.64-.6-1.03-.39-1.85-.6-.35.07-1.24-.21-.57.25-1.28.21-.68.21-.43-.04-1,.28-.5.46-.39.18-.85,1.1-.53.28-.39.64-.14.68.07.75-.25.71.25,1.03v.64l.32.71.46.5.14.28.53.53.85.57.32.39.75.21,1.81.82,1.17.46.57-.04,1,.39.53.32,1.49.53,1.1.78.43.96v1.03l-.14.11-.32.68-.11.46-.46.46-.89.43-1.03.28-.82.14h-1.81l-.46-.07-1.71-.89-.68-.36-1-1.78-.43-.43h-1.14l-.46.07-.43.36-.28.6.32.71.25.82.78,1.24.28.25.43.64.43.07.78.71.39-.11.6.46,1.03-.07.75.28,1.71.18.57-.25.64.11.78-.11,1.21-.32.5-.32.5-.04,1.17-.71.71-.82.28-.14.28-.46.53-1.74.11-.6.04-.57Z"/>
      <path class="cls-1" d="m21.94,208.65v-2.13l-.21-1.78v-1.28l.32-1.07-.14-1-.32-.64.21-1.35v.04l.11-.96-.21-.6.28-1.35-.25-.89v-2.95l.21-.43-.14-1.21v-1.46l.14-.64-.28-1.39.07-.85-.28-1.56.11-.96v-3.38l.18-1.28-.28-1.71v-5.55l-.21-1.56,1.03-.64,1.28.18.39-.18,1.1.25,1.53-.28,1.1.25,1.03-.14h1.14l.53-.25,2.38.28,2.28-.14h3.16l.43-.07h4.59l.85.28v1.74l.14.43-.39.85.36,1.49v1.46l.07.46-.32.75.36,1.78v1.42l.07.11-.46.85.46,3.06-.18.25.32,1.17-.21,1.1.25,1.21v1.32l.11.43-.21,1.74v4.34l.21.78-.25.39.25,2.03-.21,1.67.21.89v1.28l.28.96-.28,1.17.14.78v3.02l.07.68-.04.11-.78.25-.6-.07h-2.84l-.6.14-1.07.07-1.42.39-1.88-.43-1.64.21-1.07-.07h-1.42l-1.21.11h-.96l-.82-.21-1.67.32-.96-.07h-2.38l-.78.11-.64-.68-.11-1.39Zm16.78-7.36l.82-.36.07-.36.25-.64-.36-1.07-.82-.11-.71.32-.75.14-.71-.11-1.42.11-.53-.25-.53-.04-.5-.68-.39-.36-.14-.25-.43-1.96v-.46l.21-1.53-.25-1,.11-.28v-1.6l.11-.5v-.92l-.39-1.32.32-.46,1.14.64.57-.07.89.11,1.56-.32.85.28.35-.18,1.78-.25.43-.36-.07-.89-.11-.28-.5-.5h-.43l-1.03-.14-.75.25-1.21-.25-.39.11-.68-.11-1.99.18-.57.18-.32-.43.43-.85v-3.13l-.11-.85.18-.92-.07-.89-.43-.36h-1.14l-1.14.14v.89l.14.78-.25.82.18,1-.14.82v1.03l.11,1.14.43.6-.39.36-.64-.36h-1.39l-.46.07h-1.64l-.75-.07-.43.21-.11.71.11.78.21.5,1.67.11.36.04.57-.11.89.11.92-.11.71-.32.32.43-.39.39.07,1.07-.28.57.25.71-.18.36.21.89-.11.43v4.98l.57,1.67.6.57.39.64.5.43,1.24.46,1.42.25,1.6.14,1.1-.28.68.18.68-.32Z"/>
      <path class="cls-1" d="m43.05,208.51l-.14-2.17v-2.49l-.18-.89.39-1.28v-1l-.25-1,.14-2.1-.21-.39.35-1.42-.32-1.64v-1.71l.39-.96-.18-1.42.21-1.1-.11-.53-.11-1.21v-1.14l-.14-1.39v-2.91l.11-1.1v-.92l.21-.75-.25-2.45v-1.42l.11-.39-.07-1v-2.77l-.14-1.1.85-.46h2.52l.71.14.68-.25,1.53.25.53-.04,1.56.25,1.46-.39.78.25h1.96l1.46-.11h1.74l.92.11,1.64-.21,2.95.18,1.07-.07.39.43v1.35l.14.57-.32,1.14.25,1.28-.11,1.03.21,1.35-.25.75.18,1.14-.28,1,.36,1.42-.39.96.36,1.49-.14,1.81.21.71-.21,1.1.14,1v-.04l.25,1.28-.28,1.24v3.27l-.32,1.6.5,1.64-.28.96v3.16l.11.53v1.32l.32.5-.46,1.49.14,1.28v2.74l-.78.82h-2.13l-1-.11-.71.18h-1.32l-1.71.18-1.39-.21-1.03.07h-5.51l-.57-.18-1.17.36-2.03-.18h-.64l-1.46-.14h-1.1l-.21-.46.07-.82Zm15.36-9.24l.14.14v1.71l.21.18.75.11h.92l.32-1.42v-2.74l-.18-.85.18-.46-.18-1.21.25-1.78-.21-.64.11-1.21v-.82l.14-.96-.14-1.6-.11-.68v-.71l-.35-.36-1-.18-.64.14-.46.46-.36.78.21,1-.11.07-.14.92v.75l.21.82-.11.6.18.82-.18.64.11,1.28-.14.78v1.85l.36,1.1-.04.53-.46-.04-1.24.28-.28.36-1.07.18-.6.14-1.17-.18h-1.24v-.32l-.25-.18-.5-.57-.14-.64-.25-.53-.21-1.35.36-.78-.11-.78-.18-.68v-1.53l.11-.39-.07-.6.14-.57-.11-.82.07-1.17-.21-1.78-.57-.53-.71-.07-.53.04-.64.71-.32,1.14.07.14-.14.71.18.5-.11,1.07.11.53.11,1.64-.07.14.04.53-.21,1.17.07.5v2.1l.28.68v1.17l.32.18.53.71.18.64.96.57.32.36.21.14,1.28.32.5.07h1.14l.75-.14.28.11,1.14-.28,1.1-.64.53-.5.89-.82Z"/>
      <path class="cls-1" d="m64.49,208.12l-.11-1.1v-2.99l-.14-.64.32-1.1v-1.74l-.25-1.07.07-.68.14-.25-.28-1.49.28-1.74-.14-.75v-.6l-.28-.64.57-1.85-.21-1.32.18-1.46-.21-.57v-2.17l-.18-.5.11-1v-2.03l.11-1.56v-1.78l.14-1.14-.18-1.24v-1.56l.07-.39-.14-.68.18-1.74-.14-2.2.96-.5,2.03-.18,1.42.32.5-.18,1.14.25,1.17-.11.82.07.75-.25,1.17.18h5.69l1.46.11.75-.11h1.35l.32.11h2.38l.85.32-.21,1.17.28,1.32-.32.71.21,1.28v1.53l.18.6-.28,1.17.18,2.31.21.39-.32,1.6v.85l.18.85-.18,1.56.25.75-.25,1.46.18.85.11,1v.64l-.18,1.64v1.42l-.21,3.06.28,1.03-.18.6.11,1.24-.14,1.99.14.64v1.49l.18.18.04.14-.36,1.32.11,1.28v2.95l-.85.71-2.31.14-.89-.07-1.21.21-1.17-.07-.96.36-1.56-.39-1.21.18h-1.46l-1.64-.11h-2.74l-1-.11-1.14.11h-1.42l-1.39-.14h-1.6l-.21-.43.11-1.49Zm14.4-20.76l-1.35-1.42-1.49-.28-.92-.21-.46.07-.96-.11-1.1.36-.53.11-1.14.64-.28.39-1.24,1.32-.07.5-.21.18-.6,1.53-.35,1.1-.11,1.1.28,1.21-.14.5.21.75v1.17l.6,1.78.18.43.5.82.82.71.53.53.92.36.11.28,1.07.32,1.53.18h.64l.75-.28h.64l1.92-.71.18-.53.89-.96.18.18-.14.75-.07.92.14.25,1.1.14h.96l.21-.36.18-.89-.18-.78.11-1.56-.14-.64.11-1.67-.28-1.39.14-.32.11-.64-.11-1v-1.99l-.07-1.03.14-.78v-1.14l.11-1.03-.11-1v-1.35l.11-1.64-.11-.64.11-1.74-.39-1.21-1.17-.07-.71.11-.46.39-.21,1.74-.07.57.11,1.71v1.17l.18.89-.18.89v1.07l-.36.28Zm-7.86,6.19l-.18-1.07.57-1-.14-.64.36-.43v-.25l.85-1.39.21-.07.64-.57.64-.25.35.04,1.6-.11h1l1.28.75.6.18.46-.11.5.5-.36.46-.28.92.25.82-.21.6.18.36-.14,1.53-.04.57.28.92-.25,1.39.21.71.25.57-.35.36-.82.07-.89.32-.64.46-1.32.11-.6-.11-.64.07-1.35-.6-.46-.36-.75-.96-.46-.75v-.46l-.21-.53.11-1.21-.25-.64v-.21Z"/>
      <path class="cls-1" d="m85.72,203.71l-.25-.21-.04-.14.43-1.92-.39-1.17.14-1.24.21-1.1-.11-1.49.35-.39-.39-1.78v-1.88l.25-.46-.21-2.74.35-.32-.32-1.78v-1l-.18-.78.14-1.78v-3.02l.14-.36v-2.2l-.18-1.03v-1.32l.21-.5-.21-1.6.14-.85-.07.04v-1.49l-.11-.71.85-.82.53.04,1.25-.11,1.07.25,1.42-.21,1.1.25h2.24l.96-.21.53-.04,1.67.14h4.09l1,.21,1.42-.21h4.2l.46.39v1.67l.07.36-.32.71.25,1.32-.14,1.1.28,1.78-.25.89.14,1.03-.32.53.39,1.56-.39.78.39,2.35-.11,1.49.11.5-.18.6.28,2.38v1l-.18,1.64v2.06l-.18,2.17.36.92-.18,1v1.99l-.28.82.32,1.21-.07.96.25.71-.32,1.21.07.82v4.09l-.11.14-1.67.14h-.82l-1.1-.18-1.49.32h-2.63l-.75-.18-2.45.21-1.31-.11h-3.84l-.14-.18-1.67.28-.92-.07h-1.42l-.32-.14-1.35.18-.71-.64v-5.87Zm6.83-8.25l-.71-1.46.21-.32.64.14.46.21,1.42.18.32-.18,1,.14.64-.28.78.14,1.53-.21.85.25.39-.14,1.07.07.53-.11.82.11.43-.14h.64l.75-.46.25-.5-.21-1.21.07-.25-.25-1.07-.21-.46-.21-.82-.5-.82-1.46-1.42-.5-.36-.46-.14-.68-.32-.92-.18-.32-.25-.75-.21-.5.18-.35-.18-.92-.14-1,.21-.35.21-.71.18-1.53.71-.85.46-.5.82-.18.04-.32.46-.43.92-.57.85-.04.39-.28.68v1.46l-.18.78.36,1.85-.07.71.11,1.21.32.14.46.89.14.46.68.57.46.85.92.46.85.39.82.39.57.11h.71l1.56.28h.71l1.46-.32.6-.28h.32l.68-.25,1.17-.78.53-.57.78-.5.57-1.32.14-.57-.21-.64-.57-.11-.25-.11h-.75l-.64.6-.21.07-1.07,1.39-1.07.28-.14.32-1.17.39h-.96l-2.56-.57-.21-.21-.75-.5-.46-1-.25-.07-.32-.68-.07-.57-.11-.32Zm9.49-3.91l.18.43-.25.32-1.53-.5-.64.18-.92.11-1.21-.14-1.17-.11-1.28.14-.96.07-1.03-.07-.82.32-.35-.14.11-.57.32-.43.39-.85.11-.43.43-.5.39-.6,1.78-.89.82-.25.43.11h.6l1.78.28,1.17.89.64.85.57,1.07.46.71Z"/>
      <path class="cls-1" d="m107.15,208.22l-.21-1.81v-2.49l-.07-1.07.28-1.03v-1.07l-.35-.89.32-1.88-.25-1.28.32-1.56-.18-.82v-2.31l.21-.46-.07-.71.21-1.78-.32-2.03.14-.39-.28-2.13.07-.85v-1.28l.14-1.96v-2.28l.14-.82-.28-1.92.18-1.14-.14-1.07.07-.96v-1.42l-.07-1,.85-.39h.64l1.21-.14,1.21.28,1.56-.14,1.14.18h2.1l.92-.25.6.14h5.72l1.14.11.57-.11h2.6l.6.07h1.6l.25.21.04.14-.21,1.32.21,1.28-.14.18h-.18l.28,1.53v1.53l.21.75-.25,1.32.11,1-.36.64.5,1.78-.25,1.53.11,1.14-.11.89.25.71-.25,1.46.32,2.63-.28,2.31.07.96v1.35l-.25,1,.46,1.24-.25,1.1v2.59l-.18,1.17.21.82v1.35l.14.46-.28,1,.14,1.28v2.17l.07.92-.92.5h-3.09l-.82.11-.89-.07-1.95.28-.92-.21-.11-.11-2.56.21-1.42-.14h-1.03l-.39.07h-.89l-1.88-.14-1.21.11h-2.13l-.96-.11-.96.14-.68-.64.11-1.1Zm7.71-17.88l-.07-.64-.28-.53.28-.43,1.42-.32,1.1-.46.25-.04.82-.32,1.85.5.6.25.43.68.43,1.07.18,1v1.85l.14,1.64-.14.46-.07,1.1.11.57v.68l.11.6-.11.92-.18.82.28,1.07.04.39.78.18.5-.04.75-.18.68-.68-.11-.64.18-.43-.18-1.14v-1.35l.11-.39-.07-.78.14-.75-.18-.82.07-.75v-1.03l-.07-.71v-.85l-.14-1.78-.25-.78-.71-1.32-.28-.28-1-.64-.89-.39-.64-.21h-1.39l-.78.07-.78.28h-.92l-.5.28-.64.53-.68.39-.18.57-.5.07-.18-.18.21-1.39-.28-.28-.75.21-.64-.07-.57.46v.89l-.14.57.11,1.32-.14.5-.14,1.71.25,1.03-.11,1.32v2.99l.18,1.39v1.88l-.07.64.43.46,1.03.25,1.24-.21.14-.96-.14-.92.14-.75-.18-1.1.21-.36v-5.15l-.14-1.07.04-.46Z"/>
      <path class="cls-1" d="m128.59,208.65v-2.13l-.21-1.78v-1.28l.32-1.07-.14-1-.32-.64.21-1.35v.04l.11-.96-.21-.6.28-1.35-.25-.89v-2.95l.21-.43-.14-1.21v-1.46l.14-.64-.28-1.39.07-.85-.28-1.56.11-.96v-3.38l.18-1.28-.28-1.71v-5.55l-.21-1.56,1.03-.64,1.28.18.39-.18,1.1.25,1.53-.28,1.1.25,1.03-.14h1.14l.53-.25,2.38.28,2.28-.14h3.16l.43-.07h4.59l.85.28v1.74l.14.43-.39.85.36,1.49v1.46l.07.46-.32.75.36,1.78v1.42l.07.11-.46.85.46,3.06-.18.25.32,1.17-.21,1.1.25,1.21v1.32l.11.43-.21,1.74v4.34l.21.78-.25.39.25,2.03-.21,1.67.21.89v1.28l.28.96-.28,1.17.14.78v3.02l.07.68-.04.11-.78.25-.6-.07h-2.84l-.6.14-1.07.07-1.42.39-1.88-.43-1.64.21-1.07-.07h-1.42l-1.21.11h-.96l-.82-.21-1.67.32-.96-.07h-2.38l-.78.11-.64-.68-.11-1.39Zm16.78-7.36l.82-.36.07-.36.25-.64-.36-1.07-.82-.11-.71.32-.75.14-.71-.11-1.42.11-.53-.25-.53-.04-.5-.68-.39-.36-.14-.25-.43-1.96v-.46l.21-1.53-.25-1,.11-.28v-1.6l.11-.5v-.92l-.39-1.32.32-.46,1.14.64.57-.07.89.11,1.56-.32.85.28.35-.18,1.78-.25.43-.36-.07-.89-.11-.28-.5-.5h-.43l-1.03-.14-.75.25-1.21-.25-.39.11-.68-.11-1.99.18-.57.18-.32-.43.43-.85v-3.13l-.11-.85.18-.92-.07-.89-.43-.36h-1.14l-1.14.14v.89l.14.78-.25.82.18,1-.14.82v1.03l.11,1.14.43.6-.39.36-.64-.36h-1.39l-.46.07h-1.64l-.75-.07-.43.21-.11.71.11.78.21.5,1.67.11.36.04.57-.11.89.11.92-.11.71-.32.32.43-.39.39.07,1.07-.28.57.25.71-.18.36.21.89-.11.43v4.98l.57,1.67.6.57.39.64.5.43,1.24.46,1.42.25,1.6.14,1.1-.28.68.18.68-.32Z"/>
      <path class="cls-1" d="m171.08,209.29v-4.62l-.11-.11v-1.53l.36-.64-.14-1.88-.39-1,.28-1.99-.18-.14-.04-.14.46-1.85-.32-1.39-.18-1.49.32-1.42v-.43l.28-1.49-.28-1.56v-1.28l-.25-1.46.18-1.03v-1.14l-.07-.64.21-2.45-.11-1.28.28-.5-.32-1.71-.07-.85.18-1-.14-.96.11-1.71-.18-1.49,1-.75.89.11,1.35-.18,1.17.28,1-.21,1.17.21.96-.07.6.18,1.14-.36,3.02.25h4.87l.43-.18,1.99.14h2.88l.28.28.04.11-.11,1.49.21,1-.11,1.14v2.17l.14.71-.07.85v2.84l.18.25-.39,1.6.18,1.07.11.32-.18,1.81.21.96-.21,1.14.14,1.17v1.28h.07l.07.11-.28,1.74.11.92v1.56l-.21,1.96.36,1.07-.25,1.28v2.84l.11.43v1.81l.11.43-.28.71.07.78v-.04l.14,1.46v2.31l-.78.71-.64-.18-2.06.14h-.89l-1.03.11h-.82l-.75.46-1.85-.39h-6.11l-1.74-.21-1.17.32-1.64-.14h-1.03l-1.07-.11-.82.11-.36-.43-.03-.21Zm18.17-9.24l-.14-.85-.25-.28-.68-.11-1.53.11h-1.07l-.82.18-.5-.11-.43-.32.18-.53v-.96l.18-1.03-.25-1.46.11-.32-.11-1.35.11-.14v-1.85l-.11-.78.11-1.53.14-1.03-.25-1.78-1.24-.25-.21.11-1.21-.18-.25.25h-1.14l-.04-.04h-1.64l-.43.11-1.07-.21-.53.07-.64.6.14.64.07,1.07.53.14h1.63l.5-.11.78.18.68-.11.71-.21.64-.11.21.25v.53l-.25.68.07.85-.11.68.14,1.32-.14,1.07v1.6l.14.64-.21.68.14.68-.07.89.07.43.28.64-.28.25-.32.07-1.1-.14h-.78l-.6-.07h-.85l-1.56.39-.36.5-.07,1,.5.57.71.07.68-.18,1.35.11.46.07.71-.18h.75l1.53.18,1.64-.14.57.11.57-.18h1.71l.71-.07.53.18.82-.11.39-.46-.07-.25.11-.43Zm-4.8-20.76l-1.07-.71h-1.46l-.57.36-.43.71v.68l-.07.11.07.75.21.53.43.28,1.14.25.64-.11.64-.21.21-.96.25-.78v-.89Z"/>
      <path class="cls-1" d="m192.48,208.22l-.21-1.81v-2.49l-.07-1.07.28-1.03v-1.07l-.35-.89.32-1.88-.25-1.28.32-1.56-.18-.82v-2.31l.21-.46-.07-.71.21-1.78-.32-2.03.14-.39-.28-2.13.07-.85v-1.28l.14-1.96v-2.28l.14-.82-.28-1.92.18-1.14-.14-1.07.07-.96v-1.42l-.07-1,.85-.39h.64l1.21-.14,1.21.28,1.56-.14,1.14.18h2.1l.92-.25.6.14h5.72l1.14.11.57-.11h2.6l.6.07h1.6l.25.21.04.14-.21,1.32.21,1.28-.14.18h-.18l.28,1.53v1.53l.21.75-.25,1.32.11,1-.36.64.5,1.78-.25,1.53.11,1.14-.11.89.25.71-.25,1.46.32,2.63-.28,2.31.07.96v1.35l-.25,1,.46,1.24-.25,1.1v2.59l-.18,1.17.21.82v1.35l.14.46-.28,1,.14,1.28v2.17l.07.92-.92.5h-3.09l-.82.11-.89-.07-1.95.28-.92-.21-.11-.11-2.56.21-1.42-.14h-1.03l-.39.07h-.89l-1.88-.14-1.21.11h-2.13l-.96-.11-.96.14-.68-.64.11-1.1Zm7.71-17.88l-.07-.64-.28-.53.28-.43,1.42-.32,1.1-.46.25-.04.82-.32,1.85.5.6.25.43.68.43,1.07.18,1v1.85l.14,1.64-.14.46-.07,1.1.11.57v.68l.11.6-.11.92-.18.82.28,1.07.04.39.78.18.5-.04.75-.18.68-.68-.11-.64.18-.43-.18-1.14v-1.35l.11-.39-.07-.78.14-.75-.18-.82.07-.75v-1.03l-.07-.71v-.85l-.14-1.78-.25-.78-.71-1.32-.28-.28-1-.64-.89-.39-.64-.21h-1.39l-.78.07-.78.28h-.92l-.5.28-.64.53-.68.39-.18.57-.5.07-.18-.18.21-1.39-.28-.28-.75.21-.64-.07-.57.46v.89l-.14.57.11,1.32-.14.5-.14,1.71.25,1.03-.11,1.32v2.99l.18,1.39v1.88l-.07.64.43.46,1.03.25,1.24-.21.14-.96-.14-.92.14-.75-.18-1.1.21-.36v-5.15l-.14-1.07.04-.46Z"/>
      <path class="cls-1" d="m213.78,208.22l-.18-2.2v-3.7l.25-.68.14-.96-.32-1.46.14-1.1-.18-.32-.14-.5.43-2.06-.18-1.07-.36-1.32.43-1.85.14-1.88-.14-1.67v-1.07l-.28-1.6.21-1.17v-1.1l-.11-.14.14-1.85v-1.07l.14-.57.04.04v-1.64l-.25-1.17v-.75l.14-.75-.18-.92.14-1.6v-.68l-.18-1.35.92-.68.57.04,1.71-.18,1.17.18v-.11l.18-.14,2.13.39.82-.07.85.21,1.35-.36,1.88.21,1.17-.07h9.56l.5.39-.11,1.46.21.82-.35,1.21.28,1.14-.11,1.28.18,1.21-.21.6v2.42l.32.92-.18,1.35-.14.21.14,1.6-.14.78.18,1.49-.07.14-.21.18.28,1.99.21.78-.46,2.03.14.57v3.66l.28.6-.39,1.21.18,1.67v.92l-.32.53.35,1.28-.07,1,.18,1.14-.32.82.07.78v-.04l.11.82v2.2l.07.78-.07.11-3.31.32-.64-.18-1.24.18h-1.21l-.64.25-1.03-.21-.68-.07-2.31.21-1.92-.14h-2.99l-.46-.18-1.49.25-.96-.07h-1.35l-1.1-.11-1,.11-.39-.64v-1.07Zm18.45-11.34l.07-.68-.57-1.35-.64-.85-.64-.32-.68-.53-.96-.14-.36-.28-.64-.07-2.28-.64-.43.07-.6-.21-1.03-.14-1.28-.39-.6-.46-.32-.25-.21-.53.03-.46-.07-.39.32-.53.64-.43,1.46-.32,1.21-.32,1.14.21.46-.04,1.14.36,1.03.85.32.71,1.1.46,1.07.11.57-.43.11-.14-.14-1-.46-.57-.35-.78-.57-.32-.25-.28-1.35-.82-.64-.07-1.39-.57-.6.14-1.21-.25-.6.21-.57.04-.89.18-1,.11-.64.18-.21.25-.71.25-.57.5-.36.46-.43,1-.32.36-.18,1.03.07,1.07.85,1.42.53.57,1.28.53,1.46.71.36.04,1.21.36h.96l.53.07,1.42.46.64.11.21.14.39.11,1.07.85.14.39.07.75-.25.46-.14.5-.57.5-1.71.53-1.03-.28h-.92l-1.07.18-.78-.32-.85-.21-.6-.43-.53-.82-.32-.71-.36-.32-1.39-.11-.5-.04-.39.25-.04.53.25.6.28.96.21.32.71.78.11.21.82.82,1.35.46h.46l.53.21.96.07.5.11h1.92l1.95-.32h.64l1.85-1,.82-.82.75-1,.07-.85.14-.71v-.04Z"/>
      <path class="cls-1" d="m235.07,209.29v-4.62l-.11-.11v-1.53l.36-.64-.14-1.88-.39-1,.28-1.99-.18-.14-.04-.14.46-1.85-.32-1.39-.18-1.49.32-1.42v-.43l.28-1.49-.28-1.56v-1.28l-.25-1.46.18-1.03v-1.14l-.07-.64.21-2.45-.11-1.28.28-.5-.32-1.71-.07-.85.18-1-.14-.96.11-1.71-.18-1.49,1-.75.89.11,1.35-.18,1.17.28,1-.21,1.17.21.96-.07.6.18,1.14-.36,3.02.25h4.87l.43-.18,1.99.14h2.88l.28.28.04.11-.11,1.49.21,1-.11,1.14v2.17l.14.71-.07.85v2.84l.18.25-.39,1.6.18,1.07.11.32-.18,1.81.21.96-.21,1.14.14,1.17v1.28h.07l.07.11-.28,1.74.11.92v1.56l-.21,1.96.36,1.07-.25,1.28v2.84l.11.43v1.81l.11.43-.28.71.07.78v-.04l.14,1.46v2.31l-.78.71-.64-.18-2.06.14h-.89l-1.03.11h-.82l-.75.46-1.85-.39h-6.11l-1.74-.21-1.17.32-1.64-.14h-1.03l-1.07-.11-.82.11-.36-.43-.03-.21Zm18.17-9.24l-.14-.85-.25-.28-.68-.11-1.53.11h-1.07l-.82.18-.5-.11-.43-.32.18-.53v-.96l.18-1.03-.25-1.46.11-.32-.11-1.35.11-.14v-1.85l-.11-.78.11-1.53.14-1.03-.25-1.78-1.24-.25-.21.11-1.21-.18-.25.25h-1.14l-.04-.04h-1.64l-.43.11-1.07-.21-.53.07-.64.6.14.64.07,1.07.53.14h1.63l.5-.11.78.18.68-.11.71-.21.64-.11.21.25v.53l-.25.68.07.85-.11.68.14,1.32-.14,1.07v1.6l.14.64-.21.68.14.68-.07.89.07.43.28.64-.28.25-.32.07-1.1-.14h-.78l-.6-.07h-.85l-1.56.39-.36.5-.07,1,.5.57.71.07.68-.18,1.35.11.46.07.71-.18h.75l1.53.18,1.64-.14.57.11.57-.18h1.71l.71-.07.53.18.82-.11.39-.46-.07-.25.11-.43Zm-4.8-20.76l-1.07-.71h-1.46l-.57.36-.43.71v.68l-.07.11.07.75.21.53.43.28,1.14.25.64-.11.64-.21.21-.96.25-.78v-.89Z"/>
      <path class="cls-1" d="m256.69,208.44l-.28-2.52v-2.67l.25-.75.14-.89-.39-1.42v-.89l.14-.71-.28-1.24.28-1.46-.18-.57v-1.28l-.21-.96.32-1.28-.11-.53.25-1.07-.11-1.24-.21-1.07v-1.07l-.32-.92.28-1.53v-6.15l-.14-.96v-2.49l-.11-.71v-2.91l.75-1,2.38-.18,1.21.25.6-.21,1.46.21h2.2l.82-.18,1.46.11h1.32l1.07-.14,1.46.11h2.28l1.71-.25.64.11h1.71l.92-.07.75.5-.25.82.28,1.74-.36.43.43,1.81-.11.75.25,1.24-.21.92.14.96-.14.78.32.82-.57,1.14.43,1.81v2.13l.14.5-.18.96.28,1.39v1.99l-.25,1.39.21,2.24v.78l-.21.92.39,1.32-.21.82.11,1.07v2.28l.14.28-.11,1.67.21,1.03-.21.89.21.64v3.66l-.96.5-1.17.07-1.21.21-.39-.28-1.49.36h-4.34l-.53.14h-1.42l-.85-.11-1.6.11h-2.06l-.28-.11-.96.28-1.6-.11h-2.67l-.39.07-.85-.64v-1.64Zm14.72-20.97l-.89-.6-.46-.46-.57-.25-.18-.21-1.24-.53-.6.25-.5-.25-1.03-.14-1.32.53-.64.21-.78.46-.46.36-.78.82-.25.18-.46,1-.21.28-.18.46-.18.78-.39,1.21.07,1-.28.71.28,1.49-.11.39.18.6.53,1.21-.07.5.25,1.17.57.43.75.89.25.21.43.21.36.36,1.63.68.89-.11.75.18,1.1-.07,1.35-.5,1.03-.28,1.1-1.17.36.25-.18.75-.11.96-.21.28-.18.78.18.32-.11.85-.68,1.17h-.11l-.46.36-1.03.53h-1.81l-.78.14-.96-.5-.68-.18-.57-.32-.25-.21-.46-.68-.11-1.21-1.07-.39-.71-.11-.82.39-.18,1.14.5.89.25.82.68.82.75.75,1.24.57,1,.28.64.07,1.17-.18.21.25,1.42.18.35-.25,1.39-.36.68-.28.6-.14.39-.25.39-.14,1.14-1.32.39-1.32.14.07.25-.85.07-.85-.11-.53.07-.11.14-.96-.28-.68.14-.39-.07-.92.18-.36v-1.46l-.14-.53-.18-1.67.18-.32v-1.28l.14-1.07-.11-.71v-1.46l-.11-1.28.21-1.99-.14-.85-.82-.21h-1.17l-.28.21.07,1.17-.39.32Zm-8.39,5.97v-1.14l.36-1.49.57-1.49.46-.21.43-.53.96-.6h.89l.5-.14,1.1.07.92.18,1.46.6.78.36.07.64-.25.36-.11.68.21.89-.21,1.03v.68l.14.92v.96l-.11.46v.85l.18.78.21.39-.25.43h-.6l-1.14.53-.46.21-1.14.21-.85-.11-.32.11-1-.21-1-.53-.71-.64-.39-.75-.36-1.6-.21.04-.36-1.32.21-.6Z"/>
      <path class="cls-1" d="m277.74,209.54v-4.62l-.25-.25v-1.53l.35-1.28v-1.24l-.25-.75v-.71l.18-1.67-.18-.21-.04-.14.39-1.67-.36-1.24v-1.85l.36-1-.18-1.17.18-1-.14-1.49v-1.32l-.28-1.03.21-1.28v-3.55l.11-.6v-1.24l.11-1.07-.18-1.24v-5.3l-.14-.82,1-.68.75.14h1.6l.68.11,1.42-.11.6.18,1.42-.14.53.11.92-.28h.82l2.17.25.85-.11h6.61l2.28.14h1l.14.28-.11,1.64.21,1.1-.32.57.28,1.28v1.46l.14.46-.14,1.56-.14.21v1.95l.25.85-.21.78.07.82v2.81l.07.28-.28.85.39,1.64v1.67l-.32,1.46.18,2.06v1.46l-.21,1.1.36,1.03-.21,1.32v2.7l.18.32-.14,1.96.18.75-.28.85.14,1.99v2.2l-.71.78-.43-.14-1.81.18-.71-.11-1.24.14h-1.39l-1.31.21-.96-.14h-6.72l-1.42-.21-1.32.28-1.24-.11h-1l-.68-.07h-1.53l-.21-.28-.07-.28Zm7.93-19.16l-.32-.68-.11-.57.39-.32h.43l.21-.14.89-.28.71-.43.46-.04,1.1-.36.78.36,1.03.28,1.07,1.24v.92l.28.82-.18,1.42.14.18v1.35l-.18,1.14.18.96v1.07l.11.43-.11,1.64-.11.43.21.89.32.5.6.11h1.71l.14-.85-.11-.46.21-.71-.25-1.03v-1.24l.18-.78-.18-1,.14-.64-.11-.57.07-.89-.11-1.42.04-.57-.14-2.06-.35-1.03-.89-1.28-.71-.5-1.35-.71-.64-.07h-1.71l-1.24.46-.78-.11-.46.25-1.21.92-.28.57-.32-.14.14-1.24.25-1.35-.21-1.14.11-.18v-2.1l-.07-.96.07-.46-.07-.82-.89-.64h-.71l-.78.07-.39,1v3.63l.18,1.6v1.24l-.32.85.11.78.25.85-.07,1-.18.57.18,1.03-.21.53.25.68-.28,1.03.21.57v1.53l-.07.75.11.68-.11.5-.14,1.95.14.53.04.53.21.68,1.21.21.92-.18.32-.6.07-.39v-1.39l-.07-.71.18-.43-.14-.53.25-1.1-.21-.5.04-.53-.14-.6.36-1.67-.21-.14-.11-.92.11-.32.14-.92Z"/>
      <path class="cls-1" d="m299.24,208.65v-2.13l-.21-1.78v-1.28l.32-1.07-.14-1-.32-.64.21-1.35v.04l.11-.96-.21-.6.28-1.35-.25-.89v-2.95l.21-.43-.14-1.21v-1.46l.14-.64-.28-1.39.07-.85-.28-1.56.11-.96v-3.38l.18-1.28-.28-1.71v-5.55l-.21-1.56,1.03-.64,1.28.18.39-.18,1.1.25,1.53-.28,1.1.25,1.03-.14h1.14l.53-.25,2.38.28,2.28-.14h3.16l.43-.07h4.59l.85.28v1.74l.14.43-.39.85.36,1.49v1.46l.07.46-.32.75.36,1.78v1.42l.07.11-.46.85.46,3.06-.18.25.32,1.17-.21,1.1.25,1.21v1.32l.11.43-.21,1.74v4.34l.21.78-.25.39.25,2.03-.21,1.67.21.89v1.28l.28.96-.28,1.17.14.78v3.02l.07.68-.04.11-.78.25-.6-.07h-2.84l-.6.14-1.07.07-1.42.39-1.88-.43-1.64.21-1.07-.07h-1.42l-1.21.11h-.96l-.82-.21-1.67.32-.96-.07h-2.38l-.78.11-.64-.68-.11-1.39Zm16.78-7.36l.82-.36.07-.36.25-.64-.36-1.07-.82-.11-.71.32-.75.14-.71-.11-1.42.11-.53-.25-.53-.04-.5-.68-.39-.36-.14-.25-.43-1.96v-.46l.21-1.53-.25-1,.11-.28v-1.6l.11-.5v-.92l-.39-1.32.32-.46,1.14.64.57-.07.89.11,1.56-.32.85.28.35-.18,1.78-.25.43-.36-.07-.89-.11-.28-.5-.5h-.43l-1.03-.14-.75.25-1.21-.25-.39.11-.68-.11-1.99.18-.57.18-.32-.43.43-.85v-3.13l-.11-.85.18-.92-.07-.89-.43-.36h-1.14l-1.14.14v.89l.14.78-.25.82.18,1-.14.82v1.03l.11,1.14.43.6-.39.36-.64-.36h-1.39l-.46.07h-1.64l-.75-.07-.43.21-.11.71.11.78.21.5,1.67.11.36.04.57-.11.89.11.92-.11.71-.32.32.43-.39.39.07,1.07-.28.57.25.71-.18.36.21.89-.11.43v4.98l.57,1.67.6.57.39.64.5.43,1.24.46,1.42.25,1.6.14,1.1-.28.68.18.68-.32Z"/>
      <path class="cls-1" d="m320.43,208.22l-.18-2.2v-3.7l.25-.68.14-.96-.32-1.46.14-1.1-.18-.32-.14-.5.43-2.06-.18-1.07-.36-1.32.43-1.85.14-1.88-.14-1.67v-1.07l-.28-1.6.21-1.17v-1.1l-.11-.14.14-1.85v-1.07l.14-.57.04.04v-1.64l-.25-1.17v-.75l.14-.75-.18-.92.14-1.6v-.68l-.18-1.35.92-.68.57.04,1.71-.18,1.17.18v-.11l.18-.14,2.13.39.82-.07.85.21,1.35-.36,1.88.21,1.17-.07h9.56l.5.39-.11,1.46.21.82-.35,1.21.28,1.14-.11,1.28.18,1.21-.21.6v2.42l.32.92-.18,1.35-.14.21.14,1.6-.14.78.18,1.49-.07.14-.21.18.28,1.99.21.78-.46,2.03.14.57v3.66l.28.6-.39,1.21.18,1.67v.92l-.32.53.35,1.28-.07,1,.18,1.14-.32.82.07.78v-.04l.11.82v2.2l.07.78-.07.11-3.31.32-.64-.18-1.24.18h-1.21l-.64.25-1.03-.21-.68-.07-2.31.21-1.92-.14h-2.99l-.46-.18-1.49.25-.96-.07h-1.35l-1.1-.11-1,.11-.39-.64v-1.07Zm18.45-11.34l.07-.68-.57-1.35-.64-.85-.64-.32-.68-.53-.96-.14-.36-.28-.64-.07-2.28-.64-.43.07-.6-.21-1.03-.14-1.28-.39-.6-.46-.32-.25-.21-.53.03-.46-.07-.39.32-.53.64-.43,1.46-.32,1.21-.32,1.14.21.46-.04,1.14.36,1.03.85.32.71,1.1.46,1.07.11.57-.43.11-.14-.14-1-.46-.57-.35-.78-.57-.32-.25-.28-1.35-.82-.64-.07-1.39-.57-.6.14-1.21-.25-.6.21-.57.04-.89.18-1,.11-.64.18-.21.25-.71.25-.57.5-.36.46-.43,1-.32.36-.18,1.03.07,1.07.85,1.42.53.57,1.28.53,1.46.71.36.04,1.21.36h.96l.53.07,1.42.46.64.11.21.14.39.11,1.07.85.14.39.07.75-.25.46-.14.5-.57.5-1.71.53-1.03-.28h-.92l-1.07.18-.78-.32-.85-.21-.6-.43-.53-.82-.32-.71-.36-.32-1.39-.11-.5-.04-.39.25-.04.53.25.6.28.96.21.32.71.78.11.21.82.82,1.35.46h.46l.53.21.96.07.5.11h1.92l1.95-.32h.64l1.85-1,.82-.82.75-1,.07-.85.14-.71v-.04Z"/>
      <path class="cls-2" d="m2.71,235.12l-.25.49-.49.03-1.2-.31-.18-.89.15-.7.12-.28-.09-.86.09-.15-.12-1.13-.12-.89v-1.69l.03-.4.12-1.41-.21-1.01.06-.83.18-.7-.12-.98.09-.74v-1.96l-.09-.25.06-.89v-.74l-.12-.09-.06-.83.21-1.13.18-.09.21-.71.74-.06.8.12.43.52v1.5l.12.98-.15,1.35.09.7-.12.58.18.83-.18.34-.06.55.18.34.31-.46.77-.52.46-.4.77-.21,1.75-.28.61.06.74.15.95.28.74.52h.09l1.01.98.43.8.12.34.52,1.35.25,1.99.15,1.29-.46,1.96-.28.8-.86,1.53-.83.86-1.17.7-1.04.37h-.58l-.06.09-1.5-.09-.71-.28h-.49l-.46-.4-.46-.18-1.01-1.01h-.37l.21.67-.03.43-.06.03Z"/>
      <path class="cls-2" d="m20.79,230.83l.06.49.28.58.21.06.4.86.64.43.18.18,2.21.49h.83l1.01-.34.12-.28.92-.25.92-1.2.18-.06.55-.52h.64l.21.09.49.09.18.55-.12.49-.49,1.13-.67.43-.46.49-1.01.67-.58.21h-.28l-.52.25-1.26.28h-.61l-1.35-.25h-.61l-.49-.09-.71-.34-.74-.34-.8-.4-.4-.74-.58-.49-.12-.4-.4-.77-.28-.12-.09-1.04.06-.61-.31-1.59.15-.67v-1.26l.25-.58.03-.34.49-.74.37-.8.28-.4.15-.03.43-.7.74-.4,1.32-.61.61-.15.31-.18.86-.18.8.12.31.15.43-.15.64.18.28.21.8.15.58.28.4.12.43.31,1.26,1.23.43.7.18.7.18.4.21.92-.06.21.18,1.04-.21.43-.64.4h-.55l-.37.12-.71-.09-.46.09-.92-.06-.34.12-.74-.21-1.32.18-.67-.12-.55.25-.86-.12-.28.15-1.22-.15-.4-.18-.55-.12-.18.28.61,1.26.09.28Z"/>
      <path class="cls-2" d="m43.21,233.37l.21-.15v-.58l.43-1.23.09-.46.46-.74.12-.43-.03-.24.37-.8.37-.52.15-.7.12-.12.46-1.01.31-1.07.25-.49.43-1.29.4-.77.83-.58h.52l.52.15.58.52-.06.49-1.04,1.99-.28.83-.06.34-.58.98.12.31-.64.92-.09.28-.25.28-.21.83-.37.4-.15.86-.15.34-.25.31-.46,1.2-.52,1.29-.37.67-.4,1.16-.21.24-.34.74-.18.28-.25.64-.64.52-.15.37-.77.34-.52.7-.25.06-.52.34-1.01.4-.98.18-.49-.09-.64.18-.43-.06-.34-.86.03-.49.09-.28,1.04-.46.67-.15h.52l.8-.37.64-.67.98-.64.58-.89.37-.15.25-.61h-.43l-.58-.67.06-.18-.71-1.26-.06-.49-.25-.21-.4-.83-.15-.46v-.4l-.28-.64-.58-.98-.12-.06-.21-.95-.4-.64-.03-.25-.31-.67-.34-.28-.21-1.01-.31-.74-.03-.4-.52-.74-.28-.89.37-.4.58-.24.25.03.28-.12.64.4.61.86.52,1.13.31,1.01.31.46.12.52.28.52.03.37.24.43.34.89.4.8.03.34.4.77-.03.43.37.55.06.43.49.95.46.43Z"/>
      <path class="cls-2" d="m61.94,221.98h.83l.86.24.55.21.77.49.61.21v.09l.74.7.37.67.46.49.49.86.09.74v.7l.18.77-.06.83-.24,2.51-.18.4-.52,1.29-.58.7-.95.89-.61.31-.95.43-1.16.12-.49.18h-.92l-1.04.12-1.1-.34-.31-.28-.67-.15-.28-.21-.61-.34-.09-.24-.98-.8-.28-.49-.31-.31-.28-.89-.25-1.26-.31-.55.06-.95.18-1.1-.15-.74.74-1.69.12-.4.37-.8.31-.37.61-.83.61-.25.31-.21.55-.12.64-.4.15-.21h.83l-.06.03,1.07-.15h.37l.52.06Z"/>
      <path class="cls-2" d="m76.68,226.54l.12.92v4.44l-.18.31.15.95-.12.64.12.8-.12.83-1.07.18-.89-.21-.37-.4.06-.55v-1.62l-.15-1.2v-2.57l.09-1.13-.21-.89.12-1.47.12-.43-.09-1.13.12-.49v-.77l.49-.4.55.06.64-.18.25.25-.18,1.2.15.15.43-.06.15-.49.58-.34.55-.46.43-.25h.8l.67-.24.67-.06h1.2l.55.18.77.34.86.55.25.25.61,1.13.21.67.12,1.53v.74l.06.61v.89l-.06.64.15.7-.12.64.06.67-.09.34v1.16l.15.98-.15.37.09.55-.58.58-.64.15-.43.03-.67-.15-.03-.34-.25-.92.15-.7.09-.8-.09-.52v-.58l-.09-.49.06-.95.12-.4-.12-1.41v-1.59l-.15-.86-.37-.92-.37-.58-.52-.21-1.59-.43-.71.28-.21.03-.95.4-1.23.28-.25.37.25.46.06.55-.03.4Z"/>
      <path class="cls-2" d="m101.16,223.32v-.92l.15-.77-.15-.77v-1.01l-.09-1.47.06-.49.18-1.5.4-.34.61-.09,1.01.06.34,1.04-.09,1.5.09.55-.09,1.41v1.16l.09.86-.09.89v.98l-.12.67.06.89v1.72l.09.86-.09.55-.12.28.25,1.2-.09,1.44.12.55-.09,1.35.15.67-.15.77-.18.31h-.83l-.95-.12-.12-.21.06-.8.12-.64-.15-.15-.77.83-.15.46-1.65.61h-.55l-.64.24h-.55l-1.32-.15-.92-.28-.09-.24-.8-.31-.46-.46-.71-.61-.43-.7-.15-.37-.52-1.53v-1.01l-.18-.64.12-.43-.25-1.04.09-.95.31-.95.52-1.32.18-.15.06-.43,1.07-1.13.25-.34.98-.55.46-.09.95-.31.83.09.4-.06.8.18,1.29.25,1.17,1.23.31-.25Z"/>
      <path class="cls-2" d="m139.19,235.86l-.58-.15-.95.24-1.38-.12-1.23-.21-1.07-.4-.43-.37-.34-.55-.52-.49-.49-1.44v-4.29l.09-.37-.18-.77.15-.31-.21-.61.25-.49-.06-.92.34-.34-.28-.37-.61.28-.8.09-.77-.09-.49.09-.31-.03-1.44-.09-.18-.43-.09-.67.09-.61.37-.18.64.06h1.41l.4-.06h1.2l.55.31.34-.31-.37-.52-.09-.98v-.89l.12-.71-.15-.86.21-.7-.12-.67v-.77l.98-.12h.98l.37.31.06.77-.15.8.09.74v2.7l-.37.74.28.37.49-.15,1.72-.15.58.09.34-.09,1.04.21.64-.21.89.12h.37l.43.43.09.24.06.77-.37.31-1.53.21-.31.15-.74-.25-1.35.28-.77-.09-.49.06-.98-.55-.28.4.34,1.13v.8l-.09.43v1.38l-.09.25.21.86-.18,1.32v.4l.37,1.69.12.21.34.31.43.58.46.03.46.21,1.22-.09.61.09.64-.12.61-.28.71.09.31.92-.21.55-.06.31-.7.31-.58.28Z"/>
      <path class="cls-2" d="m150.25,226.97l-.09.28.09.8.18.12-.31,1.44.12.52-.03.46.18.43-.21.95.12.46-.15.37.06.61v1.2l-.06.34-.28.52-.8.15-1.04-.18-.18-.58-.03-.46-.12-.46.12-1.69.09-.43-.09-.58.06-.64v-1.32l-.18-.49.25-.89-.21-.58.18-.46-.15-.89.15-.49.06-.86-.21-.74-.09-.67.28-.74v-1.07l-.15-1.38v-3.13l.34-.86.67-.06h.61l.77.55.06.7-.06.4.06.83v1.81l-.09.15.18.98-.21,1.16-.12,1.07.28.12.25-.49,1.04-.8.4-.21.67.09,1.07-.4h1.47l.55.06,1.16.61.61.43.77,1.1.31.89.12,1.78-.03.49.09,1.23-.06.77.09.49-.12.55.15.86-.15.67v1.07l.21.89-.18.61.09.4-.12.74h-1.47l-.52-.09-.28-.43-.18-.77.09-.37.09-1.41-.09-.37v-.92l-.15-.83.15-.98v-1.16l-.12-.15.15-1.23-.24-.7v-.8l-.92-1.07-.89-.25-.67-.31-.95.31-.4.03-.61.37-.77.25-.18.12h-.37l-.34.28.09.49.28.58-.12.8Z"/>
      <path class="cls-2" d="m167.87,230.83l.06.49.28.58.21.06.4.86.64.43.18.18,2.21.49h.83l1.01-.34.12-.28.92-.25.92-1.2.18-.06.55-.52h.64l.21.09.49.09.18.55-.12.49-.49,1.13-.67.43-.46.49-1.01.67-.58.21h-.28l-.52.25-1.26.28h-.61l-1.35-.25h-.61l-.49-.09-.71-.34-.74-.34-.8-.4-.4-.74-.58-.49-.12-.4-.4-.77-.28-.12-.09-1.04.06-.61-.31-1.59.15-.67v-1.26l.25-.58.03-.34.49-.74.37-.8.28-.4.15-.03.43-.7.74-.4,1.32-.61.61-.15.31-.18.86-.18.8.12.31.15.43-.15.64.18.28.21.8.15.58.28.4.12.43.31,1.26,1.23.43.7.18.7.18.4.21.92-.06.21.18,1.04-.21.43-.64.4h-.55l-.37.12-.71-.09-.46.09-.92-.06-.34.12-.74-.21-1.32.18-.67-.12-.55.25-.86-.12-.28.15-1.22-.15-.4-.18-.55-.12-.18.28.61,1.26.09.28Z"/>
      <path class="cls-2" d="m214.63,231.81l-.12.61-.06.74-.64.86-.7.7-1.59.86h-.55l-1.69.28h-1.65l-.43-.09-.83-.06-.46-.18h-.4l-1.17-.4-.7-.7-.09-.18-.61-.67-.18-.28-.25-.83-.21-.52.03-.46.34-.21.43.03,1.2.09.31.28.28.61.46.7.52.37.74.18.67.28.92-.15h.8l.89.25,1.47-.46.49-.43.12-.43.21-.4-.06-.64-.12-.34-.92-.74-.34-.09-.18-.12-.55-.09-1.23-.4-.46-.06h-.83l-1.04-.31-.31-.03-1.26-.61-1.1-.46-.46-.49-.74-1.23-.06-.92.15-.89.28-.31.37-.86.31-.4.49-.43.61-.21.18-.21.55-.15.86-.09.77-.15.49-.03.52-.18,1.04.21.52-.12,1.2.49.55.06,1.16.7.21.25.49.28.31.67.4.49.12.86-.09.12-.49.37-.92-.09-.95-.4-.28-.61-.89-.74-.98-.31-.4.03-.98-.18-1.04.28-1.26.28-.55.37-.28.46.06.34-.03.4.18.46.28.21.52.4,1.1.34.89.12.52.18.37-.06,1.96.55.55.06.31.24.83.12.58.46.55.28.55.74.49,1.16-.06.58v.03Z"/>
      <path class="cls-2" d="m227.08,233.37l.21-.15v-.58l.43-1.23.09-.46.46-.74.12-.43-.03-.24.37-.8.37-.52.15-.7.12-.12.46-1.01.31-1.07.25-.49.43-1.29.4-.77.83-.58h.52l.52.15.58.52-.06.49-1.04,1.99-.28.83-.06.34-.58.98.12.31-.64.92-.09.28-.25.28-.21.83-.37.4-.15.86-.15.34-.25.31-.46,1.2-.52,1.29-.37.67-.4,1.16-.21.24-.34.74-.18.28-.25.64-.64.52-.15.37-.77.34-.52.7-.25.06-.52.34-1.01.4-.98.18-.49-.09-.64.18-.43-.06-.34-.86.03-.49.09-.28,1.04-.46.67-.15h.52l.8-.37.64-.67.98-.64.58-.89.37-.15.25-.61h-.43l-.58-.67.06-.18-.71-1.26-.06-.49-.25-.21-.4-.83-.15-.46v-.4l-.28-.64-.58-.98-.12-.06-.21-.95-.4-.64-.03-.25-.31-.67-.34-.28-.21-1.01-.31-.74-.03-.4-.52-.74-.28-.89.37-.4.58-.24.25.03.28-.12.64.4.61.86.52,1.13.31,1.01.31.46.12.52.28.52.03.37.24.43.34.89.4.8.03.34.4.77-.03.43.37.55.06.43.49.95.46.43Z"/>
      <path class="cls-2" d="m251.01,235.06l-.31.4-1.16.12h-1.47l-.15-.09-.89.06h-1.93l-.18-.15-.95.18h-.58l-1.2-.03-1.16-.09-.86.15-.67-.24-.18-1.13.55-.67.64-.15.67.18.49-.06.28.06,1.26-.09.77.43.25-.4-.15-.61v-.46l-.21-.74.12-.95-.12-.21.25-1.01-.06-.4v-.7l.06-.28-.06-.37v-1.13l.15-.34-.15-1.07.09-.4-.12-.25-.09-1.07v-.74l.21-.86-.15-.61.09-1.41-.12-.67.18-.55.28-.46-.25-.28-.37-.09-.8.15-.77-.09-1.2.12-1.07-.12-.46-.43-.06-.43.18-.77.67-.37.83.09h.67l.8.06.55-.09h2.3l.43.18.61.7-.09.58.12.7-.28.61.15.89v1.01l.06.58v1.1l.12,1.5-.15.58v1.26l-.06.31.18.58-.15,1.81.09,1.16-.18.43.15.74.12.28-.12.8-.15,1.29-.37.43.31.37,1.47-.37.52.12.83-.12.22-.12.89.06.92.43v.61l-.06.55Z"/>
      <path class="cls-2" d="m269.39,235.06l-.31.4-1.16.12h-1.47l-.15-.09-.89.06h-1.93l-.18-.15-.95.18h-.58l-1.2-.03-1.16-.09-.86.15-.67-.24-.18-1.13.55-.67.64-.15.67.18.49-.06.28.06,1.26-.09.77.43.25-.4-.15-.61v-.46l-.21-.74.12-.95-.12-.21.25-1.01-.06-.4v-.7l.06-.28-.06-.37v-1.13l.15-.34-.15-1.07.09-.4-.12-.25-.09-1.07v-.74l.21-.86-.15-.61.09-1.41-.12-.67.18-.55.28-.46-.25-.28-.37-.09-.8.15-.77-.09-1.2.12-1.07-.12-.46-.43-.06-.43.18-.77.67-.37.83.09h.67l.8.06.55-.09h2.3l.43.18.61.7-.09.58.12.7-.28.61.15.89v1.01l.06.58v1.1l.12,1.5-.15.58v1.26l-.06.31.18.58-.15,1.81.09,1.16-.18.43.15.74.12.28-.12.8-.15,1.29-.37.43.31.37,1.47-.37.52.12.83-.12.22-.12.89.06.92.43v.61l-.06.55Z"/>
      <path class="cls-2" d="m288.48,235.76l-.71.06-.4-.03-.86.06-.55-.09-.58-.34-.28-.52-.15-.61-.21-.21-.55.55h-.28l-.52.49-.89.25-.49.31-.37-.03-.67.28h-.86l-1.56-.15-1.13-.43-.34-.25-.18-.28-.64-.34-.55-.89-.34-1.16v-1.32l1.04-1.47.09-.21.37-.4.67-.18,1.41-.43.31-.15h1.22l.43.06h.55l.37.09.37-.03h.86l.67.18.86.37.15-.18-.12-.28-.12-.64.09-1.38-.21-.46v-.52l-.4-.64-.64-.43-.55-.46-1.41-.09-1.2.12-1.01.31-.58.64-.31,1.04-.28.37-.61.4h-.52l-.31-.06-.52-.21-.12-.43v-.67l.21-.43.06-.34.61-1.04.86-.77.46-.24.8-.18.12-.21,1.38-.12h1.38l1.01-.15.8.21.64.28.58.15.64.55.58.61.37.64.12.34.34.89-.12.83.24.77.12.67-.12.83.15,1.01-.21.8v1.81l.06.8.22.64.64.21.86-.18.4.12.15.61-.06.74-.31.34-.4.15-.03.09Z"/>
      <path class="cls-2" d="m296.88,235.12l-.25.49-.49.03-1.2-.31-.18-.89.15-.7.12-.28-.09-.86.09-.15-.12-1.13-.12-.89v-1.69l.03-.4.12-1.41-.21-1.01.06-.83.18-.7-.12-.98.09-.74v-1.96l-.09-.25.06-.89v-.74l-.12-.09-.06-.83.21-1.13.18-.09.21-.71.74-.06.8.12.43.52v1.5l.12.98-.15,1.35.09.7-.12.58.18.83-.18.34-.06.55.18.34.31-.46.77-.52.46-.4.77-.21,1.75-.28.61.06.74.15.95.28.74.52h.09l1.01.98.43.8.12.34.52,1.35.25,1.99.15,1.29-.46,1.96-.28.8-.86,1.53-.83.86-1.16.7-1.04.37h-.58l-.06.09-1.5-.09-.71-.28h-.49l-.46-.4-.46-.18-1.01-1.01h-.37l.21.67-.03.43-.06.03Z"/>
      <path class="cls-2" d="m321.46,234.54l-.46.43-.95.55-.98.25-.25-.09-.64.12h-.98l-.43-.06-1.1-.28-.18-.12-.28-.31-.83-.49-.15-.55-.46-.61-.28-.15v-1.01l-.25-.58v-1.81l-.06-.43.18-1.01-.03-.46.06-.12-.09-1.41-.09-.46.09-.92-.15-.43.12-.61-.06-.12.28-.98.55-.61.46-.03.61.06.49.46.18,1.53-.06,1.01.09.7-.12.49.06.52-.09.34v1.32l.15.58.09.67-.31.67.18,1.16.21.46.12.55.43.49.21.15v.28h1.07l1.01.15.52-.12.92-.15.24-.31,1.07-.25.4.03.03-.46-.31-.95v-1.59l.12-.67-.09-1.1.15-.55-.15-.71.09-.52-.18-.7v-.64l.12-.8.09-.06-.18-.86.31-.67.4-.4.55-.12.86.15.31.31v.61l.09.58.12,1.38-.12.83v.7l-.09,1.04.18.55-.21,1.53.15,1.04-.15.4.15.74v2.36l-.28,1.23h-.8l-.64-.09-.18-.15v-1.47l-.12-.12-.77.7Z"/>
      <path class="cls-2" d="m343.34,231.81l-.12.61-.06.74-.64.86-.7.7-1.59.86h-.55l-1.69.28h-1.65l-.43-.09-.83-.06-.46-.18h-.4l-1.17-.4-.7-.7-.09-.18-.61-.67-.18-.28-.25-.83-.21-.52.03-.46.34-.21.43.03,1.2.09.31.28.28.61.46.7.52.37.74.18.67.28.92-.15h.8l.89.25,1.47-.46.49-.43.12-.43.21-.4-.06-.64-.12-.34-.92-.74-.34-.09-.18-.12-.55-.09-1.23-.4-.46-.06h-.83l-1.04-.31-.31-.03-1.26-.61-1.1-.46-.46-.49-.74-1.23-.06-.92.15-.89.28-.31.37-.86.31-.4.49-.43.61-.21.18-.21.55-.15.86-.09.77-.15.49-.03.52-.18,1.04.21.52-.12,1.2.49.55.06,1.16.7.21.25.49.28.31.67.4.49.12.86-.09.12-.49.37-.92-.09-.95-.4-.28-.61-.89-.74-.98-.31-.4.03-.98-.18-1.04.28-1.26.28-.55.37-.28.46.06.34-.03.4.18.46.28.21.52.4,1.1.34.89.12.52.18.37-.06,1.96.55.55.06.31.24.83.12.58.46.55.28.55.74.49,1.16-.06.58v.03Z"/>
    </g>
    <rect class="cls-1" x="150.4" y="170.37" width="23" height="40"/>
  </g>
</svg>